<?xml version="1.0"?>
<svg width="981" height="1000" xmlns="http://www.w3.org/2000/svg">

 <g>
  <title>background</title>
  <rect fill="none" id="canvas_background" height="402" width="582" y="-1" x="-1"/>
 </g>
 <g>
  <title>Layer 1</title>
  <path id="svg_1" fill="#aab3b6" d="m352.545013,25.284c-31.01001,-7.051001 -56.394012,-4.231001 -83.173004,9.871998c-29.613983,18.333 -46.536987,46.537003 -53.587982,86.008003c-7.05101,40.880997 0,80.367004 21.153,119.837997l9.870987,14.087997l-33.845001,-11.281998c-42.292007,-9.871002 -81.777008,-4.231003 -121.248001,16.922012c-40.881001,21.152985 -66.265001,50.752991 -83.186992,91.648987c-15.512,39.485016 -14.088,77.546997 5.641,112.787018c8.461,15.511993 21.153002,28.190002 32.42,36.651001c16.921997,16.922974 38.074997,26.794006 63.444992,31.01001l9.870995,2.820007l-21.152985,18.332947c-19.743004,16.922058 -31.01001,38.061035 -38.061012,59.21405c-7.050999,25.383972 -4.230999,50.752991 9.871002,74.725952c7.050995,11.267029 14.087997,21.139038 25.368996,28.189026c11.282005,9.870972 25.384003,16.922974 42.292,18.317993c31.024002,7.051025 63.445007,7.051025 98.684998,-4.244995l-25.383987,42.291992l-7.05101,18.346985c-14.087997,45.112 -9.871002,84.597046 11.281998,125.465027c9.871002,15.510986 21.153,29.627991 32.434998,42.291016c16.921997,15.511963 38.061005,25.382996 63.445007,32.434998c42.291992,11.266968 84.597992,9.870972 125.479004,-11.267029c39.485992,-21.167969 64.855011,-54.997986 77.546997,-97.302979l1.409973,-8.462036c26.778992,29.629028 52.163025,49.356995 80.367004,56.40802c28.190002,8.460999 56.393982,7.051025 81.777039,-9.870972c23.972961,-14.102051 40.880981,-38.075012 49.342957,-67.675049c7.051025,-31.024963 7.051025,-62.034973 0,-97.274963c14.088013,9.870972 28.190002,16.893982 45.112,21.138977c45.112,14.10199 84.583008,12.677979 124.069031,-8.460999c38.075012,-21.138977 63.445007,-54.997986 76.135986,-98.700012c11.281982,-42.291992 8.460999,-83.158997 -12.692017,-122.643982l-7.050964,-11.281982c-11.282043,-16.921997 -22.549011,-33.845032 -39.471008,-45.112c-14.087036,-9.871002 -31.01001,-16.921997 -46.522034,-23.973022c43.716003,-21.152985 74.726013,-50.752991 88.828003,-88.828003c9.871033,-31.023987 7.051025,-56.393005 -7.050964,-81.777008l0,-2.819977c-16.90802,-28.20401 -39.471008,-46.537003 -74.712036,-56.393005c-21.152954,-4.231003 -45.125977,-4.231003 -66.264954,-2.820007l-46.522034,9.871002l15.512024,-35.240005c14.10199,-45.112 9.870972,-88.827995 -14.10199,-129.708992l-4.231018,-7.051003c-21.153015,-35.254997 -52.163025,-56.392998 -94.455017,-67.674998c-43.701965,-11.281 -84.583008,-7.051 -124.06897,14.102c-39.471008,21.139 -67.675018,53.572998 -80.352997,95.878998l0,2.82l-1.410004,9.872002l-5.641022,-9.872002l-14.10199,-25.38401c-22.578003,-35.196987 -50.781006,-56.349987 -86.022003,-66.221998l0.001007,-0.002989zm359.527985,84.599987c7.051025,14.088005 11.281006,31.01001 11.281006,49.343002l-4.231018,31.009995c-5.640991,15.512009 -12.691956,29.613998 -21.153015,42.292007l-126.888977,155.108002c-12.692017,-9.871979 -26.794006,-16.923004 -40.895996,-23.973999l-14.088013,-159.309006l-1.409973,-56.393005l1.409973,-14.087997c7.051025,-28.188995 26.778992,-49.341995 52.163025,-63.444992c25.368958,-14.088005 53.572998,-16.922005 80.352966,-7.051003c29.614014,7.036995 50.767029,22.548996 63.458984,46.507996l0.001038,-0.000999zm-437.075012,28.20401c1.410004,-25.38401 11.281982,-42.292 28.190002,-52.162994c8.460999,-7.051003 21.152985,-7.051003 32.419983,-1.410004c25.384003,7.051003 46.522003,25.384003 63.445007,60.624008c7.050995,14.10199 14.10199,28.188995 16.921997,45.112l28.190002,166.375l-21.152985,7.050995l-125.479004,-136.761002l-7.050995,-14.087997c-11.252991,-25.39801 -18.304016,-49.35701 -15.483002,-74.740997l-0.001007,0.000992zm-76.136002,164.949997l38.074997,15.511993l124.069,90.238007c-11.282013,14.087982 -18.317993,28.188995 -22.549011,42.291992l-203.025986,25.384003l-14.102005,-2.820007c-25.384003,-4.230988 -42.292,-15.511993 -53.572998,-36.651001c-11.282001,-21.152985 -11.282001,-42.291992 -2.82,-63.444977c9.870995,-26.794006 28.189995,-47.947021 54.983002,-59.21402c25.368996,-14.115997 50.737999,-18.346985 78.941994,-11.29599l0.001007,0zm133.940018,229.804962l9.871002,28.204041l4.230988,9.870972c-21.153015,18.317993 -36.665009,35.241028 -53.572998,50.752991l-42.306015,35.255005l-11.281998,7.051025c-26.794006,12.677979 -49.342987,16.922974 -73.315994,14.088013c-21.153,-1.410034 -38.075012,-8.460999 -45.126007,-21.139038l-4.231003,-15.511963l2.82,-12.677002c7.051003,-21.166992 25.38401,-42.291992 57.818001,-57.817993c16.908005,-7.051025 31.01001,-14.102051 42.292007,-16.921997l112.80101,-21.153015l0.001007,-0.001038zm439.880981,-228.394989c25.384033,-11.280975 49.343018,-14.10199 74.726013,-11.280975c23.973022,2.819977 40.895996,14.087982 49.34198,31.009979l5.640991,18.318024l-2.820007,14.10199c-9.870972,25.384003 -31.023987,45.112 -66.264954,60.623993c-14.087036,7.050995 -29.600037,9.872009 -46.522034,12.677002l-173.41095,21.153015l-2.820007,-9.871002l-2.820007,-4.216003l5.640991,-7.050995l142.401001,-118.428009l16.90802,-7.037018l-0.001038,0zm-359.514008,133.940002c16.90802,-15.511993 39.471008,-25.368988 66.265015,-25.368988c25.384003,0 49.342987,9.871002 64.855011,25.368988c19.742981,19.743011 28.203979,40.895996 28.203979,66.265015s-8.460999,49.342987 -28.203979,66.264984c-18.333008,18.319031 -39.471008,28.190002 -64.855011,28.190002c-26.794006,0 -49.356995,-9.870972 -66.265015,-28.190002c-18.332977,-16.921997 -28.189972,-40.895996 -28.189972,-66.264984s9.856995,-46.522003 28.189972,-66.265015zm32.420013,204.436005c2.820007,47.947021 7.050995,98.699036 14.10199,153.683044l0,56.407959l-1.410004,14.10199c-9.870972,25.355042 -26.793976,46.507996 -52.162994,57.789001c-25.368988,14.102051 -52.162994,16.923035 -77.546997,9.872009c-28.190002,-7.021973 -49.342987,-23.945007 -60.623993,-46.507996c-7.050995,-14.10199 -12.691986,-31.024963 -12.691986,-47.947021l7.050995,-32.404968c2.819977,-14.10199 9.871002,-28.218994 21.152985,-39.484985l118.428009,-141.006042c14.10199,7.036011 28.190002,14.088013 43.701996,15.498047l0,-0.001038zm108.570984,-18.33197l59.213989,60.623962l36.651001,45.112l7.051025,14.102051c12.692017,23.973999 19.742981,46.536987 16.921997,73.330994c-2.820007,25.382996 -11.281982,43.700989 -28.190002,50.751953c-9.870972,7.051025 -21.153015,7.051025 -32.419983,5.627014c-26.794006,-7.021973 -47.947021,-28.190002 -63.445007,-62.034973l-16.921997,-46.507996l-21.153015,-122.673035l23.973022,-8.460999l18.317993,-9.870972l0.000977,0zm63.445007,-87.41803l159.324036,-14.088013l56.393982,-1.41095l14.10199,1.41095c21.153015,7.051025 40.895996,19.743042 52.163025,40.881042c14.087952,15.511963 21.138977,36.651001 21.138977,60.623962l-4.216003,28.189026c-7.051025,28.218994 -23.973022,49.356995 -47.947021,60.624023c-25.383972,14.10199 -50.752991,16.921997 -78.95697,7.050964c-16.921997,-4.216003 -28.190002,-11.266968 -38.075012,-22.534973l-148.041992,-122.673035l9.870972,-21.138977l4.244995,-16.937012l-0.000977,0.002991z"/>
 </g>
</svg>